<?xml version="1.0" standalone="no"?>
<!DOCTYPE svg PUBLIC "-//W3C//DTD SVG 20010904//EN"
 "http://www.w3.org/TR/2001/REC-SVG-20010904/DTD/svg10.dtd">
<svg version="1.0" xmlns="http://www.w3.org/2000/svg"
 width="192.000000pt" height="192.000000pt" viewBox="0 0 192.000000 192.000000"
 preserveAspectRatio="xMidYMid meet">
<metadata>
Created by potrace 1.11, written by Peter Selinger 2001-2013
</metadata>
<g transform="translate(0.000000,192.000000) scale(0.100000,-0.100000)"
fill="#000000" stroke="none">
<path d="M72 1900 c-18 -11 -41 -34 -52 -52 -19 -32 -20 -52 -20 -888 0 -836
1 -856 20 -888 11 -18 34 -41 52 -52 32 -19 52 -20 888 -20 836 0 856 1 888
20 18 11 41 34 52 52 19 32 20 52 20 888 0 836 -1 856 -20 888 -11 18 -34 41
-52 52 -32 19 -52 20 -888 20 -836 0 -856 -1 -888 -20z m514 -156 c57 -139
166 -269 354 -419 63 -51 167 -146 230 -211 187 -194 267 -327 296 -496 27
-155 -4 -333 -91 -524 -19 -41 -35 -74 -37 -74 -2 0 -4 33 -5 73 -3 140 -86
309 -221 449 -78 81 -86 83 -208 32 -179 -74 -272 -51 -275 67 -2 59 -13 77
-52 87 -28 7 -32 13 -32 41 0 20 -6 36 -17 42 -14 8 -18 23 -18 63 0 60 -10
73 -61 82 -41 8 -69 30 -69 56 0 10 20 59 45 108 25 49 45 94 45 100 0 5 -13
10 -29 10 -44 0 -47 18 -4 22 38 3 38 3 36 45 -1 23 -9 55 -17 72 -9 17 -21
63 -28 104 -16 106 6 230 63 345 l42 87 14 -50 c8 -27 25 -77 39 -111z"/>
</g>
</svg>
